<?xml version="1.0" standalone="no"?>
<!DOCTYPE svg PUBLIC "-//W3C//DTD SVG 20010904//EN"
 "http://www.w3.org/TR/2001/REC-SVG-20010904/DTD/svg10.dtd">
<svg version="1.0" xmlns="http://www.w3.org/2000/svg"
 width="1616.000000pt" height="1616.000000pt" viewBox="0 0 1616.000000 1616.000000"
 preserveAspectRatio="xMidYMid meet">
<metadata>
Created by potrace 1.11, written by Peter Selinger 2001-2013
</metadata>
<g transform="translate(0.000000,1616.000000) scale(0.100000,-0.100000)"
fill="#000000" stroke="none">
<path d="M8801 16144 c-58 -21 -108 -53 -151 -97 -45 -47 -61 -77 -125 -242
-15 -38 -31 -79 -36 -90 -5 -11 -18 -45 -29 -75 -11 -30 -24 -64 -29 -75 -11
-25 -31 -78 -70 -180 -17 -44 -51 -134 -77 -200 -25 -66 -47 -124 -49 -130 -1
-5 -6 -21 -12 -35 -17 -41 -55 -144 -57 -155 -2 -5 -9 -23 -16 -40 -7 -16 -18
-48 -25 -70 -7 -22 -23 -65 -35 -95 -12 -30 -23 -62 -25 -70 -2 -8 -29 -82
-60 -165 -30 -82 -56 -157 -58 -165 -1 -8 -4 -17 -7 -20 -3 -3 -11 -21 -17
-40 -6 -19 -39 -114 -73 -210 -34 -96 -75 -213 -91 -260 -17 -47 -33 -92 -36
-100 -3 -8 -7 -19 -9 -25 -1 -5 -28 -82 -59 -170 -31 -88 -65 -189 -77 -225
-11 -36 -24 -70 -29 -76 -6 -7 -9 -16 -8 -20 1 -5 -1 -16 -4 -24 -9 -22 -38
-103 -40 -115 -2 -5 -5 -14 -9 -20 -3 -5 -9 -26 -13 -45 -4 -19 -11 -39 -15
-45 -4 -5 -18 -44 -30 -85 -12 -41 -25 -79 -28 -85 -5 -9 -71 -197 -76 -220
-2 -5 -7 -21 -13 -35 -6 -14 -18 -52 -28 -85 -10 -33 -24 -72 -31 -86 -7 -15
-15 -37 -18 -50 -4 -20 -43 -138 -63 -189 -4 -8 -7 -17 -8 -20 0 -3 -9 -30
-20 -60 -11 -30 -19 -57 -20 -60 0 -3 -5 -18 -12 -35 -20 -54 -26 -70 -28 -75
-10 -33 -30 -93 -58 -175 -20 -55 -76 -217 -125 -360 -50 -143 -122 -352 -162
-465 -39 -113 -83 -239 -96 -280 -14 -41 -29 -83 -35 -92 -5 -10 -9 -26 -9
-36 0 -10 -3 -22 -7 -26 -5 -4 -8 -11 -9 -14 0 -4 -4 -14 -7 -22 -4 -8 -15
-37 -24 -65 -17 -46 -24 -53 -88 -85 -39 -20 -113 -58 -165 -85 -52 -28 -98
-51 -102 -53 -3 -2 -5 21 -3 50 3 29 7 105 10 168 4 63 8 142 11 175 2 33 6
98 9 145 2 47 7 121 10 165 3 44 7 118 10 164 2 46 7 122 10 170 13 196 16
240 21 326 3 50 7 119 9 155 2 36 6 106 9 155 6 97 15 248 20 331 2 28 6 57
10 63 4 6 2 11 -4 11 -6 0 -9 4 -5 10 21 34 21 590 0 690 -3 14 -7 40 -10 58
-8 58 -53 215 -82 287 -64 156 -182 321 -252 352 -67 29 -157 32 -221 6 -14
-6 -27 -10 -30 -9 -8 2 -91 -65 -112 -89 -31 -36 -55 -98 -83 -210 -14 -61
-28 -117 -31 -125 -2 -8 -11 -42 -19 -75 -9 -33 -18 -68 -20 -77 -3 -10 -7
-27 -9 -37 -6 -28 -36 -140 -47 -181 -6 -19 -12 -44 -14 -55 -2 -11 -4 -20 -5
-20 -1 0 -3 -7 -5 -15 -1 -8 -19 -80 -40 -160 -20 -80 -38 -153 -40 -163 -2
-10 -7 -28 -11 -40 -4 -12 -8 -29 -9 -37 -1 -8 -14 -61 -29 -116 -14 -56 -28
-112 -30 -125 -3 -13 -5 -25 -7 -26 -1 -2 -3 -7 -4 -13 -1 -5 -3 -11 -5 -12
-1 -2 -3 -12 -5 -23 -1 -11 -21 -96 -45 -190 -23 -93 -43 -177 -45 -185 -2 -8
-8 -27 -14 -42 -6 -16 -9 -28 -7 -28 2 0 -7 -39 -20 -87 -14 -49 -26 -97 -28
-108 -5 -32 -27 -129 -33 -145 -8 -20 -10 -29 -29 -119 -3 -14 -8 -29 -11 -34
-3 -6 -8 -22 -9 -36 -3 -29 -5 -38 -22 -96 -6 -22 -13 -51 -16 -65 -3 -14 -15
-63 -26 -110 -11 -47 -22 -92 -24 -101 -3 -9 -9 -34 -15 -55 -6 -21 -8 -40 -6
-43 3 -2 1 -9 -4 -15 -5 -6 -12 -24 -14 -41 -3 -16 -17 -75 -32 -130 -14 -55
-27 -111 -29 -125 -2 -14 -18 -81 -36 -150 -17 -69 -33 -136 -36 -149 -3 -13
-12 -51 -20 -85 -8 -34 -16 -68 -18 -76 -5 -19 -67 -280 -72 -302 -2 -10 -6
-26 -8 -35 -2 -10 -12 -47 -21 -83 -9 -36 -19 -73 -21 -84 -4 -24 11 -13 -139
-91 -71 -37 -161 -84 -200 -105 -38 -20 -128 -68 -200 -105 -215 -112 -278
-146 -313 -172 -38 -28 -78 -89 -88 -130 -10 -47 -4 -140 11 -170 8 -15 15
-34 15 -40 0 -7 3 -13 8 -13 4 0 14 -13 23 -29 9 -16 40 -47 69 -70 101 -80
205 -84 345 -14 126 64 260 135 272 144 13 11 9 -33 -8 -88 -6 -17 -12 -44
-15 -60 -3 -15 -9 -44 -14 -63 -5 -19 -11 -46 -14 -60 -3 -14 -15 -65 -27
-115 -11 -49 -22 -98 -24 -108 -2 -10 -6 -26 -9 -35 -3 -9 -7 -28 -10 -42 -9
-50 -47 -216 -56 -245 -10 -34 -20 -78 -25 -115 -2 -14 -4 -25 -5 -25 -2 0 -7
-18 -15 -59 -3 -15 -13 -58 -21 -95 -9 -36 -17 -74 -20 -84 -2 -10 -6 -28 -10
-40 -4 -12 -8 -33 -10 -47 -1 -14 -14 -74 -29 -135 -26 -108 -33 -140 -40
-180 -2 -11 -19 -87 -39 -170 -19 -82 -37 -162 -40 -178 -2 -15 -7 -35 -10
-45 -3 -9 -7 -28 -10 -42 -3 -14 -8 -36 -11 -50 -3 -14 -7 -36 -10 -50 -3 -14
-19 -83 -35 -155 -17 -71 -32 -141 -35 -155 -4 -25 -5 -30 -24 -110 -5 -25
-12 -56 -15 -70 -6 -29 -9 -45 -36 -170 -11 -52 -27 -122 -35 -155 -8 -33 -17
-76 -20 -95 -3 -19 -8 -43 -11 -52 -3 -9 -6 -25 -8 -35 -3 -10 -11 -49 -20
-86 -9 -37 -18 -82 -21 -100 -2 -18 -16 -81 -30 -141 -30 -131 -31 -179 -5
-248 60 -159 261 -245 417 -178 77 33 134 106 148 190 3 19 12 62 20 95 15 59
41 175 50 225 3 14 8 37 11 52 3 15 5 30 5 33 0 2 5 19 10 37 5 18 11 44 14
58 3 14 7 35 10 47 3 13 7 33 10 45 3 13 7 34 10 48 3 14 9 40 14 58 5 18 10
35 10 37 1 3 1 6 2 8 0 1 2 11 4 22 1 11 5 31 8 45 3 14 13 61 22 105 9 44 23
107 31 140 8 33 17 74 20 90 3 17 10 45 15 62 6 18 12 45 14 60 5 33 12 68 19
91 3 9 8 31 11 47 8 38 13 60 15 60 1 0 3 11 5 25 2 14 11 56 20 95 9 38 18
82 20 97 2 15 6 32 10 38 4 6 8 23 10 38 2 15 11 59 20 97 9 39 19 79 21 90 3
17 10 49 20 88 1 4 2 8 3 10 2 1 4 13 6 27 6 32 13 65 15 65 1 0 3 11 6 25 2
14 15 70 28 125 14 55 27 114 30 130 2 17 9 45 15 64 6 19 9 37 6 39 -3 3 0
11 6 19 6 7 9 13 6 13 -3 0 0 21 8 48 7 26 16 61 19 77 3 17 19 89 36 160 27
119 56 242 65 288 2 10 7 27 10 37 3 10 8 29 11 42 15 69 16 74 35 148 6 25
13 56 16 70 8 38 11 55 13 60 1 3 3 10 4 15 1 6 5 24 9 40 4 17 10 41 13 55 3
14 6 30 8 35 12 42 25 101 30 135 1 9 5 21 10 28 4 6 5 12 2 12 -3 0 1 18 9
40 8 22 14 43 14 45 0 3 2 18 5 33 4 15 9 37 11 50 21 98 22 99 83 130 152 78
292 151 304 158 7 5 15 9 18 9 3 1 24 11 47 23 l41 22 -1 -80 c-1 -44 -4 -80
-7 -80 -3 0 -6 -30 -7 -68 -1 -67 -8 -192 -18 -332 -3 -41 -8 -115 -11 -165
-11 -195 -13 -223 -19 -310 -7 -101 -17 -279 -19 -342 -1 -23 -4 -45 -8 -48
-3 -4 -2 -20 2 -36 5 -16 6 -29 2 -29 -4 0 -8 -21 -8 -48 -2 -71 -14 -279 -19
-336 -3 -28 -7 -100 -11 -161 -3 -60 -6 -114 -6 -120 -2 -25 13 -98 23 -118
38 -72 103 -123 184 -143 40 -10 130 -7 169 6 17 5 33 9 36 8 10 -5 103 68
129 102 30 39 45 70 71 150 10 30 39 114 65 185 25 72 48 137 50 145 2 8 4 15
4 15 2 0 72 201 76 217 2 9 9 27 16 40 7 13 12 25 11 28 -1 3 6 28 15 55 10
28 18 52 18 55 1 3 7 19 14 35 7 17 15 42 18 58 3 15 9 27 13 27 3 0 7 6 7 13
0 6 22 73 47 147 26 74 49 140 50 145 3 10 6 18 22 60 4 11 8 25 9 30 2 6 19
55 40 110 20 55 38 107 40 115 2 8 4 16 5 18 2 1 3 5 4 10 4 15 28 88 36 107
14 34 90 252 90 258 0 3 5 18 12 34 6 15 12 34 14 41 1 8 6 21 10 30 4 9 8 19
9 22 0 3 12 37 25 75 13 39 23 73 22 78 -1 4 2 7 8 7 6 0 9 3 8 8 -2 9 13 64
21 77 3 6 6 12 6 15 1 3 12 37 25 75 13 39 23 73 22 78 -1 4 2 7 6 7 5 0 9 6
9 13 0 9 89 270 156 457 10 29 25 41 85 71 39 20 78 42 86 49 8 6 21 13 28 14
7 1 18 4 23 8 6 3 107 55 225 116 118 60 277 142 354 181 l138 71 -6 -52 c-3
-29 -8 -64 -11 -78 -3 -14 -7 -41 -10 -60 -4 -36 -12 -87 -20 -130 -3 -14 -7
-41 -9 -60 -3 -19 -14 -91 -25 -160 -11 -69 -23 -141 -25 -160 -3 -19 -7 -44
-10 -55 -2 -11 -6 -41 -10 -66 -4 -25 -9 -57 -11 -70 -9 -50 -34 -216 -41
-264 -3 -27 -8 -53 -10 -57 -3 -4 -7 -31 -10 -60 -6 -58 -11 -93 -14 -93 -2 0
-6 -31 -13 -92 -3 -23 -7 -46 -10 -50 -2 -4 -8 -37 -11 -72 -4 -36 -9 -67 -11
-70 -2 -4 -6 -35 -10 -71 -3 -35 -8 -67 -11 -71 -2 -4 -6 -22 -8 -40 -6 -44
-15 -100 -26 -169 -5 -30 -11 -71 -14 -90 -3 -19 -7 -44 -10 -55 -2 -11 -7
-47 -11 -80 -3 -32 -8 -62 -10 -65 -2 -4 -7 -29 -10 -56 -4 -27 -8 -60 -11
-74 -2 -14 -9 -56 -15 -95 -6 -38 -13 -81 -15 -95 -3 -14 -7 -38 -9 -55 -2
-16 -7 -46 -10 -65 -3 -19 -8 -51 -11 -70 -5 -36 -21 -135 -30 -180 -5 -25 -8
-46 -18 -125 -3 -22 -8 -51 -11 -65 -3 -14 -8 -43 -11 -65 -5 -40 -7 -54 -24
-155 -5 -30 -11 -73 -15 -95 -3 -22 -7 -51 -10 -65 -2 -14 -7 -43 -10 -65 -3
-22 -10 -65 -15 -95 -5 -30 -12 -73 -15 -95 -3 -22 -8 -53 -11 -70 -3 -16 -7
-43 -10 -60 -3 -16 -6 -39 -8 -50 -2 -11 -7 -44 -11 -74 -3 -30 -9 -63 -11
-75 -3 -12 -7 -39 -10 -61 -3 -22 -8 -47 -11 -55 -3 -8 -7 -33 -8 -55 -3 -37
-7 -61 -19 -125 -5 -27 -16 -100 -21 -140 -2 -14 -4 -25 -5 -25 -2 0 -5 -19
-14 -94 -3 -24 -10 -69 -15 -100 -6 -31 -12 -69 -15 -86 -9 -63 -18 -121 -22
-140 -2 -10 -6 -35 -9 -55 -3 -20 -8 -47 -10 -60 -3 -14 -7 -46 -10 -71 -3
-25 -10 -70 -16 -100 -6 -30 -12 -70 -14 -89 -3 -19 -7 -53 -11 -75 -4 -22 -9
-49 -10 -60 -2 -11 -5 -31 -8 -45 -9 -53 -15 -97 -22 -145 -3 -27 -7 -52 -9
-55 -2 -3 -6 -29 -10 -59 -4 -30 -9 -63 -11 -75 -4 -20 -9 -49 -19 -121 -12
-87 -17 -111 -22 -130 -3 -11 -7 -33 -9 -50 -6 -56 -23 -174 -29 -195 -2 -8
-7 -37 -10 -65 -4 -27 -9 -59 -10 -70 -2 -11 -6 -38 -9 -60 -6 -36 -16 -94
-21 -120 -1 -5 -5 -32 -9 -60 -3 -27 -8 -61 -11 -75 -3 -14 -8 -38 -10 -55 -6
-49 -15 -107 -20 -134 -2 -14 -7 -44 -10 -66 -4 -22 -18 -110 -32 -195 -13
-85 -26 -171 -28 -190 -2 -19 -4 -35 -5 -35 -2 0 -9 -36 -14 -80 -3 -22 -7
-49 -10 -61 -2 -12 -7 -45 -11 -74 -4 -29 -9 -62 -11 -74 -2 -11 -6 -36 -9
-56 -3 -20 -8 -47 -10 -60 -3 -14 -8 -45 -11 -70 -7 -53 -12 -86 -19 -120 -3
-14 -7 -38 -9 -55 -3 -16 -7 -48 -11 -70 -9 -50 -12 -68 -20 -130 -12 -91 -14
-100 -15 -100 -1 0 -3 -11 -5 -25 -2 -14 -6 -43 -10 -65 -3 -22 -7 -51 -9 -65
-5 -37 -26 -168 -36 -220 -5 -25 -12 -67 -16 -95 -3 -27 -8 -61 -11 -75 -2
-14 -4 -35 -4 -47 1 -13 -3 -23 -7 -23 -4 0 -7 -15 -8 -32 0 -37 -11 -113 -25
-175 -5 -24 -8 -46 -7 -50 1 -5 -2 -24 -5 -43 -8 -38 -13 -72 -22 -134 -8 -54
-13 -81 -15 -81 -1 0 -3 -16 -4 -35 -2 -19 -8 -62 -14 -95 -38 -208 -38 -256
2 -345 23 -53 82 -113 137 -139 109 -54 248 -31 336 55 52 52 78 107 89 189 8
62 10 73 13 78 1 1 4 18 6 37 3 19 7 49 10 65 2 17 7 48 10 70 3 22 10 65 15
95 5 30 12 73 15 95 3 22 8 51 10 65 5 26 12 70 19 118 11 69 19 118 21 132 2
8 8 51 15 95 7 44 14 89 17 100 2 11 6 34 7 50 2 17 6 44 9 60 4 17 9 49 12
71 3 23 8 57 10 75 3 19 7 45 10 59 3 14 7 41 10 60 3 19 7 46 9 60 3 14 7 43
10 65 4 22 8 51 11 65 3 14 7 41 10 60 7 56 19 129 30 190 2 14 7 43 10 65 3
23 7 50 9 62 6 28 14 80 21 133 6 48 12 82 15 90 1 3 2 8 2 12 -1 3 5 44 13
90 8 45 16 101 20 122 3 21 8 48 10 60 3 12 8 39 10 61 10 86 18 131 26 147 7
12 6 18 -1 18 -6 0 -8 5 -4 11 3 6 8 28 11 48 2 20 7 43 10 51 3 8 7 31 9 50
2 18 6 50 10 70 3 19 8 49 9 65 2 17 4 30 5 30 2 0 4 14 5 30 2 17 4 30 5 30
2 0 4 11 5 25 4 36 15 106 27 175 14 78 17 100 22 158 3 26 7 50 9 55 3 4 8
30 11 57 4 28 9 59 12 70 2 11 6 36 8 55 2 19 9 62 15 95 6 33 12 74 15 90 7
47 19 128 22 150 1 11 3 20 4 20 1 0 3 14 5 30 3 26 10 74 21 140 2 11 5 29 7
40 3 11 8 43 11 70 4 28 11 75 16 105 5 30 11 69 14 85 2 17 8 50 12 75 4 25
8 54 10 65 1 11 12 79 23 150 12 72 24 146 27 165 7 52 12 81 18 118 10 52 14
84 21 132 3 25 10 68 15 95 5 28 12 71 15 98 3 26 10 59 15 73 7 16 7 23 0 19
-7 -4 -7 3 0 19 5 15 11 44 12 66 2 22 6 40 9 40 3 0 5 12 4 28 -1 15 2 41 6
57 4 17 10 48 13 70 3 22 7 49 10 60 6 33 18 118 22 155 1 19 3 35 4 35 4 0
15 72 26 160 3 28 8 53 11 58 2 4 6 24 8 45 3 20 6 46 9 57 2 11 7 45 11 75 4
30 9 64 12 75 4 20 6 35 18 115 3 25 8 52 10 60 2 8 7 40 10 70 4 30 8 57 10
60 2 3 6 30 10 60 3 30 8 62 10 70 2 8 7 34 10 57 10 75 14 97 20 128 4 17 8
46 10 65 2 19 9 64 15 100 6 36 13 79 16 95 2 17 6 41 9 55 3 14 7 45 10 70 7
49 13 85 15 85 1 0 3 14 5 30 1 17 6 50 10 75 4 25 8 54 10 65 1 11 5 34 8 50
4 17 9 50 13 75 7 48 12 75 14 75 1 0 3 18 4 40 3 33 20 140 42 265 2 14 6 41
9 60 3 19 7 44 9 56 2 12 7 45 11 74 4 29 9 62 11 74 6 32 12 64 24 151 7 44
14 89 16 100 3 11 7 39 10 61 2 23 6 50 8 60 2 11 7 39 11 64 4 25 9 54 12 65
2 11 6 34 7 50 2 17 6 50 10 75 4 25 10 59 12 75 3 17 7 37 9 45 2 8 6 35 9
60 3 25 8 55 10 67 3 11 7 43 11 70 4 26 9 59 11 73 3 14 7 41 10 60 2 19 6
46 9 60 3 14 7 43 11 65 3 22 7 51 9 65 3 14 7 43 11 65 3 22 8 51 11 65 2 14
6 39 7 55 2 17 5 30 6 30 1 0 3 14 5 30 11 81 54 348 58 351 1 1 135 68 297
150 162 82 298 154 302 159 4 6 8 7 8 3 0 -3 19 4 43 17 23 13 87 45 141 72
55 26 109 53 120 60 33 19 80 40 87 39 3 -1 13 5 21 11 18 16 728 373 740 373
5 0 7 -4 4 -8 -5 -8 -12 -57 -21 -147 -3 -22 -7 -60 -10 -85 -15 -129 -18
-158 -19 -192 0 -21 -3 -38 -6 -38 -3 0 -5 -11 -5 -25 1 -14 -2 -51 -6 -83 -5
-31 -11 -86 -15 -122 -4 -36 -8 -76 -9 -90 -2 -14 -6 -52 -10 -85 -3 -33 -8
-76 -10 -95 -3 -19 -7 -66 -11 -105 -3 -38 -8 -86 -10 -105 -2 -19 -6 -55 -8
-80 -4 -42 -11 -102 -21 -195 -3 -22 -7 -62 -10 -88 -3 -27 -7 -52 -10 -57 -3
-5 -1 -11 5 -15 6 -4 7 -12 3 -18 -4 -7 -8 -16 -9 -22 -2 -14 -16 -154 -19
-190 -3 -38 -16 -172 -20 -205 -2 -14 -6 -59 -9 -100 -4 -41 -9 -87 -12 -103
-2 -15 -6 -53 -9 -85 -3 -31 -7 -72 -9 -91 -4 -30 -13 -125 -22 -241 -5 -76
-5 -322 1 -380 8 -80 21 -165 25 -165 1 0 4 -13 6 -30 15 -96 87 -271 159
-386 50 -78 134 -153 193 -173 186 -60 369 48 398 233 7 42 7 44 4 51 -1 3 -4
25 -6 50 -3 25 -9 47 -12 50 -4 3 -8 10 -9 16 -1 6 -19 38 -41 70 -33 51 -48
83 -88 189 -10 27 -11 34 -19 80 -4 22 -9 43 -11 46 -6 11 -17 152 -17 229 0
72 10 242 19 305 2 17 6 55 9 85 4 30 9 66 11 80 2 14 7 43 10 65 3 22 11 83
19 135 8 52 17 122 20 155 22 217 28 280 30 320 2 22 4 40 5 40 1 0 4 25 6 55
4 53 7 92 17 175 3 22 8 72 11 110 4 39 8 81 11 95 3 14 7 57 11 95 3 39 8 86
10 105 2 19 6 58 9 85 9 92 14 140 19 175 2 19 7 67 11 105 9 93 9 89 20 97 6
5 6 8 -1 8 -8 0 -9 15 -4 48 5 26 11 81 15 122 4 41 9 84 11 95 2 11 6 45 9
75 2 30 7 75 10 100 3 25 7 68 10 95 3 28 8 66 10 85 5 34 15 126 19 165 3 34
15 44 100 85 45 22 86 43 90 47 4 5 11 8 14 8 13 0 427 210 434 220 4 5 8 6 8
2 0 -5 20 3 45 17 25 15 45 24 45 20 0 -3 6 -2 13 5 11 9 371 192 387 196 8 3
113 55 130 65 8 5 67 34 130 65 128 64 150 80 188 145 23 39 27 56 26 120 -1
93 -27 153 -93 219 -66 68 -129 95 -217 96 -39 0 -82 -5 -95 -12 -13 -6 -99
-47 -191 -92 -91 -45 -171 -81 -176 -81 -6 0 -12 -3 -14 -7 -1 -5 -19 -16 -38
-25 -19 -10 -181 -89 -359 -178 -179 -88 -329 -160 -334 -160 -5 0 -6 12 -3
28 3 15 8 54 12 87 4 33 8 74 10 90 2 17 6 50 9 75 3 25 7 61 10 80 2 19 7 62
11 95 3 33 8 62 9 65 2 3 6 39 10 79 4 41 9 84 11 95 2 12 7 49 10 82 2 34 7
72 10 85 3 13 7 41 9 61 1 21 6 59 10 86 9 68 13 99 20 167 6 61 12 100 15
100 1 0 3 16 4 35 2 19 6 58 10 85 3 28 8 68 11 90 2 22 6 54 9 70 2 17 8 54
11 84 4 30 8 63 10 73 2 11 7 47 10 81 3 34 8 69 10 77 6 21 17 126 19 190 6
117 -78 220 -214 265 -99 33 -216 2 -291 -76 -69 -72 -82 -110 -104 -296 -11
-88 -14 -108 -15 -108 -1 0 -3 -16 -5 -35 -5 -50 -15 -141 -20 -170 -13 -90
-17 -120 -20 -156 -2 -23 -7 -55 -10 -70 -3 -16 -8 -54 -11 -84 -11 -100 -13
-115 -14 -115 -1 0 -3 -13 -4 -30 -2 -16 -6 -55 -10 -85 -4 -30 -9 -73 -12
-95 -3 -22 -7 -51 -9 -65 -2 -14 -7 -54 -10 -90 -4 -36 -9 -74 -11 -84 -3 -18
-9 -73 -19 -166 -2 -19 -6 -48 -8 -65 -3 -16 -8 -57 -12 -90 -3 -33 -8 -73
-11 -89 -3 -16 -7 -48 -9 -70 -2 -23 -6 -57 -9 -76 -3 -19 -8 -62 -12 -95 -7
-71 -11 -106 -19 -171 -3 -27 -8 -69 -11 -94 -7 -76 -13 -125 -14 -130 -1 -3
-3 -14 -4 -24 -1 -16 -73 -56 -326 -182 -179 -90 -332 -169 -340 -176 -8 -7
-17 -12 -20 -11 -10 5 -40 -8 -40 -18 0 -5 -6 -9 -12 -9 -7 0 -132 -61 -278
-135 -146 -74 -276 -140 -290 -145 -36 -15 -28 -11 -229 -115 -169 -87 -214
-103 -194 -72 4 7 8 25 9 41 2 26 19 136 30 196 6 29 12 70 19 120 6 37 12 72
15 80 1 3 2 9 1 13 -1 5 5 47 14 95 8 48 17 103 19 122 3 19 5 35 6 35 1 0 3
14 5 30 10 76 15 112 21 135 3 14 7 44 9 67 2 24 6 51 9 60 5 16 22 122 31
198 2 17 6 41 9 55 5 22 9 49 22 140 3 19 7 42 9 50 3 8 7 35 10 60 3 25 13
86 21 135 8 50 17 101 19 115 2 14 6 43 10 65 3 22 8 54 10 70 3 28 9 63 19
110 2 11 7 42 10 68 4 26 11 71 16 98 6 28 8 55 5 59 -3 5 -2 11 3 14 4 2 9
20 10 38 3 32 9 73 12 73 1 0 11 81 13 103 0 6 4 12 8 12 5 0 6 6 3 14 -3 8
-1 39 5 68 6 29 13 69 15 88 3 19 9 64 15 100 5 36 12 83 16 105 3 22 8 54 11
70 6 36 11 67 19 120 3 22 10 67 16 100 6 33 13 76 14 95 2 19 4 35 5 35 2 0
12 78 13 103 1 12 3 22 7 22 3 0 5 15 6 33 0 30 5 82 20 217 8 72 8 336 1 425
-6 70 -11 108 -24 175 -3 19 -6 38 -5 41 2 11 -47 192 -64 234 -9 22 -17 47
-19 55 -8 40 -73 159 -105 191 -65 66 -172 87 -269 53z m-227 -1941 c-3 -21
-7 -49 -10 -63 -3 -14 -7 -42 -9 -62 -2 -21 -6 -50 -9 -65 -3 -15 -8 -46 -11
-68 -3 -22 -7 -51 -10 -65 -2 -13 -7 -40 -10 -60 -3 -20 -7 -45 -9 -55 -3 -18
-15 -102 -22 -150 -1 -11 -3 -20 -4 -20 -1 0 -3 -13 -5 -30 -1 -16 -3 -30 -5
-30 -1 0 -3 -11 -5 -25 -3 -32 -14 -109 -19 -135 -2 -11 -7 -40 -11 -65 -4
-25 -9 -52 -10 -60 -1 -8 -6 -40 -10 -70 -4 -30 -10 -66 -12 -80 -2 -14 -6
-38 -8 -55 -2 -16 -4 -30 -5 -30 -1 0 -3 -11 -5 -25 -2 -14 -6 -47 -10 -75 -4
-27 -8 -56 -8 -62 0 -7 -4 -13 -9 -13 -5 0 -6 -5 -3 -10 4 -6 2 -34 -4 -63 -9
-45 -14 -75 -27 -172 -1 -11 -3 -20 -4 -20 -1 0 -3 -13 -5 -30 -1 -16 -4 -32
-5 -35 -1 -3 -2 -8 -1 -12 0 -4 -3 -29 -9 -55 -5 -27 -12 -66 -14 -88 -3 -22
-7 -51 -10 -65 -11 -57 -17 -96 -18 -110 0 -8 -5 -35 -10 -60 -5 -25 -11 -63
-13 -85 -2 -22 -5 -49 -8 -60 -2 -11 -8 -42 -12 -70 -4 -27 -9 -59 -11 -70 -2
-11 -5 -36 -8 -55 -3 -19 -8 -46 -11 -60 -3 -14 -7 -43 -10 -65 -3 -22 -8 -56
-11 -75 -3 -19 -7 -48 -9 -65 -2 -16 -7 -41 -10 -55 -3 -14 -8 -44 -11 -66 -2
-23 -6 -51 -9 -62 -2 -11 -7 -42 -11 -69 -3 -26 -8 -57 -10 -68 -2 -11 -7 -40
-10 -65 -3 -25 -8 -54 -10 -65 -2 -11 -7 -34 -10 -52 -6 -34 3 -29 -459 -262
-60 -30 -113 -60 -117 -66 -4 -5 -8 -7 -8 -4 0 4 -40 -14 -89 -40 l-89 -48 9
31 c8 29 16 53 35 101 4 11 8 22 9 25 0 3 9 30 20 60 10 30 20 60 21 65 3 12
98 283 122 345 9 25 17 47 17 50 2 10 27 86 35 105 5 11 14 38 21 60 6 22 16
46 22 53 5 6 6 12 2 12 -4 0 -2 7 5 15 7 9 10 18 7 21 -3 4 3 24 14 45 11 22
17 39 13 39 -4 0 -1 7 6 15 7 8 9 15 6 15 -4 0 -2 9 4 21 6 11 13 28 15 37 3
9 21 64 41 122 92 262 186 536 189 550 2 8 21 65 43 127 22 61 38 114 35 117
-4 3 -1 6 5 6 7 0 12 11 12 24 0 14 5 28 10 31 6 3 10 15 10 26 0 10 4 27 9
37 10 18 22 50 26 67 3 12 22 67 110 320 37 105 67 195 69 200 1 6 4 15 8 20
3 6 10 26 16 45 10 35 58 172 69 200 8 19 8 20 18 55 4 17 12 35 16 41 5 6 10
19 12 30 4 20 12 44 27 79 5 11 41 113 81 228 40 114 74 207 75 207 2 0 1 -17
-2 -37z m-2908 -3031 c-3 -10 -8 -62 -11 -117 -3 -55 -8 -129 -10 -165 -5 -65
-12 -178 -21 -320 -2 -41 -6 -118 -10 -170 -3 -52 -6 -117 -8 -145 -1 -27 -5
-56 -9 -62 -5 -8 -3 -13 3 -13 6 0 8 -5 4 -11 -4 -7 -8 -41 -9 -78 -2 -36 -6
-120 -10 -186 -5 -66 -9 -136 -10 -157 -1 -35 -19 -68 -36 -68 -4 0 -31 -13
-59 -30 -27 -16 -50 -26 -50 -22 0 4 -4 3 -8 -3 -5 -8 -133 -75 -173 -92 -4
-2 6 48 22 110 16 61 32 124 34 139 3 15 9 38 15 52 5 15 7 26 5 26 -2 0 0 11
5 25 5 14 12 36 14 48 2 12 16 72 31 132 14 61 28 117 30 125 2 8 29 116 60
240 31 124 58 236 61 250 2 14 7 32 11 40 3 8 7 24 8 35 2 11 15 65 30 120 15
55 29 111 31 125 2 14 6 35 9 47 3 13 6 26 7 30 0 5 9 31 19 60 9 28 14 55 11
59 -4 4 -1 4 6 0 7 -4 10 -15 8 -24z m579 -1819 c-22 -57 -97 -280 -98 -290 0
-7 -4 -13 -8 -13 -4 0 -6 30 -3 68 3 37 7 98 8 135 2 37 5 69 7 71 9 8 85 45
93 46 4 0 5 -8 1 -17z"/>
</g>
</svg>
